<?xml version="1.0" encoding="UTF-8" standalone="no"?>
<!DOCTYPE svg PUBLIC "-//W3C//DTD SVG 1.1//EN"
 "http://www.w3.org/Graphics/SVG/1.1/DTD/svg11.dtd">
<!-- Generated by graphviz version 2.43.0 (0)
 -->
<!-- Title: Project Pages: 1 -->
<svg width="524pt" height="559pt"
 viewBox="0.00 0.00 524.00 559.00" xmlns="http://www.w3.org/2000/svg" xmlns:xlink="http://www.w3.org/1999/xlink">
<g id="graph0" class="graph" transform="scale(1 1) rotate(0) translate(4 555)">
<title>Project</title>
<polygon fill="white" stroke="transparent" points="-4,4 -4,-555 520,-555 520,4 -4,4"/>
<g id="clust1" class="cluster">
<title>cluster PeripheralBlocks</title>
<polygon fill="none" stroke="black" points="8,-8 8,-543 158,-543 158,-8 8,-8"/>
<text text-anchor="middle" x="83" y="-527.8" font-family="Times,serif" font-size="14.00">Peripheral Blocks</text>
</g>
<g id="clust2" class="cluster">
<title>cluster ArchitectureBlocks</title>
<polygon fill="none" stroke="black" points="178,-164 178,-401 335,-401 335,-164 178,-164"/>
<text text-anchor="middle" x="256.5" y="-385.8" font-family="Times,serif" font-size="14.00">Architecture Blocks</text>
</g>
<g id="clust3" class="cluster">
<title>cluster EnvironmentBlocks</title>
<polygon fill="none" stroke="black" points="355,-164 355,-401 516,-401 516,-164 355,-164"/>
<text text-anchor="middle" x="435.5" y="-385.8" font-family="Times,serif" font-size="14.00">Environment Blocks</text>
</g>
<!-- MPSoC-DBG -->
<g id="node1" class="node">
<title>MPSoC-DBG</title>
<polygon fill="none" stroke="black" points="28.5,-131 28.5,-169 137.5,-169 137.5,-131 28.5,-131"/>
<text text-anchor="middle" x="83" y="-153.8" font-family="Times,serif" font-size="14.00">MPSoC-DBG</text>
<text text-anchor="middle" x="83" y="-138.8" font-family="Times,serif" font-size="14.00">Peripheral</text>
</g>
<!-- MPSoC-OR1K -->
<g id="node10" class="node">
<title>MPSoC-OR1K</title>
<polygon fill="none" stroke="black" points="198,-172.5 198,-225.5 315,-225.5 315,-172.5 198,-172.5"/>
<text text-anchor="middle" x="256.5" y="-210.3" font-family="Times,serif" font-size="14.00">MPSoC-OR1K</text>
<text text-anchor="middle" x="256.5" y="-195.3" font-family="Times,serif" font-size="14.00">Architecture</text>
<text text-anchor="middle" x="256.5" y="-180.3" font-family="Times,serif" font-size="14.00">or1k64&#45;pvt</text>
</g>
<!-- MPSoC-DBG&#45;&gt;MPSoC-OR1K -->
<g id="edge1" class="edge">
<title>MPSoC-DBG&#45;&gt;MPSoC-OR1K</title>
<path fill="none" stroke="black" d="M137.79,-165.37C153.72,-169.92 171.37,-174.96 188.05,-179.73"/>
<polygon fill="black" stroke="black" points="187.16,-183.11 197.74,-182.5 189.08,-176.38 187.16,-183.11"/>
</g>
<!-- SoC-OR1K -->
<g id="node11" class="node">
<title>SoC-OR1K</title>
<polygon fill="none" stroke="black" points="203.5,-244.5 203.5,-297.5 309.5,-297.5 309.5,-244.5 203.5,-244.5"/>
<text text-anchor="middle" x="256.5" y="-282.3" font-family="Times,serif" font-size="14.00">SoC-OR1K</text>
<text text-anchor="middle" x="256.5" y="-267.3" font-family="Times,serif" font-size="14.00">Architecture</text>
<text text-anchor="middle" x="256.5" y="-252.3" font-family="Times,serif" font-size="14.00">or1k64&#45;pv</text>
</g>
<!-- MPSoC-DBG&#45;&gt;SoC-OR1K -->
<g id="edge10" class="edge">
<title>MPSoC-DBG&#45;&gt;SoC-OR1K</title>
<path fill="none" stroke="black" d="M137.57,-164.52C145.11,-168.31 152.24,-173.06 158,-179 176.4,-197.97 160.19,-215.47 178,-235 182.7,-240.16 188.29,-244.63 194.29,-248.5"/>
<polygon fill="black" stroke="black" points="192.9,-251.74 203.3,-253.75 196.42,-245.7 192.9,-251.74"/>
</g>
<!-- PU-OR1K -->
<g id="node12" class="node">
<title>PU-OR1K</title>
<polygon fill="none" stroke="black" points="203.5,-316.5 203.5,-369.5 309.5,-369.5 309.5,-316.5 203.5,-316.5"/>
<text text-anchor="middle" x="256.5" y="-354.3" font-family="Times,serif" font-size="14.00">PU-OR1K</text>
<text text-anchor="middle" x="256.5" y="-339.3" font-family="Times,serif" font-size="14.00">Architecture</text>
<text text-anchor="middle" x="256.5" y="-324.3" font-family="Times,serif" font-size="14.00">or1k64&#45;p</text>
</g>
<!-- MPSoC-DBG&#45;&gt;PU-OR1K -->
<g id="edge19" class="edge">
<title>MPSoC-DBG&#45;&gt;PU-OR1K</title>
<path fill="none" stroke="black" d="M137.86,-163.22C145.55,-167.19 152.65,-172.33 158,-179 194.03,-223.91 143.36,-261 178,-307 182.48,-312.95 188.18,-317.95 194.45,-322.14"/>
<polygon fill="black" stroke="black" points="192.91,-325.3 203.3,-327.37 196.47,-319.27 192.91,-325.3"/>
</g>
<!-- MPSoC-DMA -->
<g id="node2" class="node">
<title>MPSoC-DMA</title>
<polygon fill="none" stroke="black" points="27.5,-74 27.5,-112 138.5,-112 138.5,-74 27.5,-74"/>
<text text-anchor="middle" x="83" y="-96.8" font-family="Times,serif" font-size="14.00">MPSoC-DMA</text>
<text text-anchor="middle" x="83" y="-81.8" font-family="Times,serif" font-size="14.00">Peripheral</text>
</g>
<!-- MPSoC-DMA&#45;&gt;MPSoC-OR1K -->
<g id="edge2" class="edge">
<title>MPSoC-DMA&#45;&gt;MPSoC-OR1K</title>
<path fill="none" stroke="black" d="M138.23,-112.09C145.03,-115.11 151.78,-118.43 158,-122 179.41,-134.29 201.17,-150.98 218.68,-165.69"/>
<polygon fill="black" stroke="black" points="216.54,-168.45 226.42,-172.28 221.08,-163.13 216.54,-168.45"/>
</g>
<!-- MPSoC-DMA&#45;&gt;SoC-OR1K -->
<g id="edge11" class="edge">
<title>MPSoC-DMA&#45;&gt;SoC-OR1K</title>
<path fill="none" stroke="black" d="M138.86,-106.9C146.13,-110.77 152.84,-115.7 158,-122 190.32,-161.46 146.91,-194.57 178,-235 182.54,-240.9 188.28,-245.87 194.57,-250.05"/>
<polygon fill="black" stroke="black" points="193.04,-253.21 203.43,-255.27 196.59,-247.18 193.04,-253.21"/>
</g>
<!-- MPSoC-DMA&#45;&gt;PU-OR1K -->
<g id="edge20" class="edge">
<title>MPSoC-DMA&#45;&gt;PU-OR1K</title>
<path fill="none" stroke="black" d="M138.5,-106.2C146.01,-110.16 152.89,-115.31 158,-122 208.21,-187.71 129.83,-239.78 178,-307 182.4,-313.13 188.11,-318.25 194.43,-322.52"/>
<polygon fill="black" stroke="black" points="192.99,-325.73 203.38,-327.82 196.56,-319.71 192.99,-325.73"/>
</g>
<!-- MPSoC-GPIO -->
<g id="node3" class="node">
<title>MPSoC-GPIO</title>
<polygon fill="none" stroke="black" points="26.5,-473 26.5,-511 139.5,-511 139.5,-473 26.5,-473"/>
<text text-anchor="middle" x="83" y="-495.8" font-family="Times,serif" font-size="14.00">MPSoC-GPIO</text>
<text text-anchor="middle" x="83" y="-480.8" font-family="Times,serif" font-size="14.00">Peripheral</text>
</g>
<!-- MPSoC-GPIO&#45;&gt;MPSoC-OR1K -->
<g id="edge3" class="edge">
<title>MPSoC-GPIO&#45;&gt;MPSoC-OR1K</title>
<path fill="none" stroke="black" d="M139.69,-479.06C146.76,-475.26 153.19,-470.35 158,-464 188.84,-423.28 148.67,-276.83 178,-235 181.19,-230.44 185.12,-226.45 189.48,-222.95"/>
<polygon fill="black" stroke="black" points="191.56,-225.77 197.76,-217.18 187.56,-220.03 191.56,-225.77"/>
</g>
<!-- MPSoC-GPIO&#45;&gt;SoC-OR1K -->
<g id="edge12" class="edge">
<title>MPSoC-GPIO&#45;&gt;SoC-OR1K</title>
<path fill="none" stroke="black" d="M139.84,-478.69C146.79,-474.95 153.15,-470.15 158,-464 201.56,-408.77 136.48,-363.78 178,-307 182.39,-300.99 188.04,-295.95 194.29,-291.74"/>
<polygon fill="black" stroke="black" points="196.31,-294.61 203.11,-286.49 192.73,-288.59 196.31,-294.61"/>
</g>
<!-- MPSoC-GPIO&#45;&gt;PU-OR1K -->
<g id="edge21" class="edge">
<title>MPSoC-GPIO&#45;&gt;PU-OR1K</title>
<path fill="none" stroke="black" d="M139.83,-474.62C146.23,-471.55 152.44,-468.03 158,-464 189.79,-440.96 216.95,-405 234.47,-378.27"/>
<polygon fill="black" stroke="black" points="237.58,-379.9 240.03,-369.59 231.69,-376.12 237.58,-379.9"/>
</g>
<!-- MPSoC-MPI -->
<g id="node4" class="node">
<title>MPSoC-MPI</title>
<polygon fill="none" stroke="black" points="30.5,-416 30.5,-454 135.5,-454 135.5,-416 30.5,-416"/>
<text text-anchor="middle" x="83" y="-438.8" font-family="Times,serif" font-size="14.00">MPSoC-MPI</text>
<text text-anchor="middle" x="83" y="-423.8" font-family="Times,serif" font-size="14.00">Peripheral</text>
</g>
<!-- MPSoC-MPI&#45;&gt;MPSoC-OR1K -->
<g id="edge4" class="edge">
<title>MPSoC-MPI&#45;&gt;MPSoC-OR1K</title>
<path fill="none" stroke="black" d="M135.82,-423.79C144.34,-419.79 152.26,-414.37 158,-407 205.33,-346.32 132.92,-297.37 178,-235 181.26,-230.49 185.23,-226.53 189.62,-223.05"/>
<polygon fill="black" stroke="black" points="191.71,-225.87 197.95,-217.31 187.73,-220.11 191.71,-225.87"/>
</g>
<!-- MPSoC-MPI&#45;&gt;SoC-OR1K -->
<g id="edge13" class="edge">
<title>MPSoC-MPI&#45;&gt;SoC-OR1K</title>
<path fill="none" stroke="black" d="M135.72,-423.23C144.14,-419.28 152.05,-414.02 158,-407 187.31,-372.43 149.97,-342.62 178,-307 182.54,-301.23 188.22,-296.34 194.44,-292.22"/>
<polygon fill="black" stroke="black" points="196.35,-295.15 203.18,-287.05 192.79,-289.12 196.35,-295.15"/>
</g>
<!-- MPSoC-MPI&#45;&gt;PU-OR1K -->
<g id="edge22" class="edge">
<title>MPSoC-MPI&#45;&gt;PU-OR1K</title>
<path fill="none" stroke="black" d="M135.59,-417.15C143.22,-414.03 150.9,-410.62 158,-407 175.81,-397.92 194.38,-386.33 210.48,-375.51"/>
<polygon fill="black" stroke="black" points="212.86,-378.13 219.15,-369.6 208.92,-372.34 212.86,-378.13"/>
</g>
<!-- MPSoC-MPRAM -->
<g id="node5" class="node">
<title>MPSoC-MPRAM</title>
<polygon fill="none" stroke="black" points="16,-359 16,-397 150,-397 150,-359 16,-359"/>
<text text-anchor="middle" x="83" y="-381.8" font-family="Times,serif" font-size="14.00">MPSoC-MPRAM</text>
<text text-anchor="middle" x="83" y="-366.8" font-family="Times,serif" font-size="14.00">Peripheral</text>
</g>
<!-- MPSoC-MPRAM&#45;&gt;MPSoC-OR1K -->
<g id="edge5" class="edge">
<title>MPSoC-MPRAM&#45;&gt;MPSoC-OR1K</title>
<path fill="none" stroke="black" d="M148.39,-358.99C151.94,-356.37 155.2,-353.39 158,-350 191.05,-310.01 146.44,-276.17 178,-235 181.25,-230.77 185.11,-227.01 189.35,-223.69"/>
<polygon fill="black" stroke="black" points="191.65,-226.35 197.91,-217.8 187.69,-220.58 191.65,-226.35"/>
</g>
<!-- MPSoC-MPRAM&#45;&gt;SoC-OR1K -->
<g id="edge14" class="edge">
<title>MPSoC-MPRAM&#45;&gt;SoC-OR1K</title>
<path fill="none" stroke="black" d="M145.99,-358.96C150.31,-356.34 154.38,-353.37 158,-350 173.44,-335.65 163.09,-321.9 178,-307 182.86,-302.14 188.51,-297.86 194.49,-294.1"/>
<polygon fill="black" stroke="black" points="196.5,-296.98 203.45,-288.98 193.03,-290.91 196.5,-296.98"/>
</g>
<!-- MPSoC-MPRAM&#45;&gt;PU-OR1K -->
<g id="edge23" class="edge">
<title>MPSoC-MPRAM&#45;&gt;PU-OR1K</title>
<path fill="none" stroke="black" d="M150.31,-364.47C164.49,-361.57 179.42,-358.53 193.44,-355.67"/>
<polygon fill="black" stroke="black" points="194.36,-359.05 203.46,-353.62 192.96,-352.19 194.36,-359.05"/>
</g>
<!-- MPSoC-MSI -->
<g id="node6" class="node">
<title>MPSoC-MSI</title>
<polygon fill="none" stroke="black" points="30.5,-302 30.5,-340 135.5,-340 135.5,-302 30.5,-302"/>
<text text-anchor="middle" x="83" y="-324.8" font-family="Times,serif" font-size="14.00">MPSoC-MSI</text>
<text text-anchor="middle" x="83" y="-309.8" font-family="Times,serif" font-size="14.00">Peripheral</text>
</g>
<!-- MPSoC-MSI&#45;&gt;MPSoC-OR1K -->
<g id="edge6" class="edge">
<title>MPSoC-MSI&#45;&gt;MPSoC-OR1K</title>
<path fill="none" stroke="black" d="M135.73,-308.2C143.95,-304.36 151.78,-299.41 158,-293 176.99,-273.44 159.74,-255.25 178,-235 181.3,-231.34 185.06,-228.02 189.09,-225.02"/>
<polygon fill="black" stroke="black" points="191.31,-227.74 197.69,-219.29 187.43,-221.92 191.31,-227.74"/>
</g>
<!-- MPSoC-MSI&#45;&gt;SoC-OR1K -->
<g id="edge15" class="edge">
<title>MPSoC-MSI&#45;&gt;SoC-OR1K</title>
<path fill="none" stroke="black" d="M135.92,-305.86C154.14,-300.55 174.78,-294.53 193.73,-289.01"/>
<polygon fill="black" stroke="black" points="194.84,-292.33 203.46,-286.17 192.88,-285.61 194.84,-292.33"/>
</g>
<!-- MPSoC-MSI&#45;&gt;PU-OR1K -->
<g id="edge24" class="edge">
<title>MPSoC-MSI&#45;&gt;PU-OR1K</title>
<path fill="none" stroke="black" d="M135.92,-327.66C154.06,-329.99 174.59,-332.62 193.47,-335.04"/>
<polygon fill="black" stroke="black" points="193.1,-338.52 203.46,-336.32 193.99,-331.58 193.1,-338.52"/>
</g>
<!-- MPSoC-NoC -->
<g id="node7" class="node">
<title>MPSoC-NoC</title>
<polygon fill="none" stroke="black" points="29.5,-17 29.5,-55 136.5,-55 136.5,-17 29.5,-17"/>
<text text-anchor="middle" x="83" y="-39.8" font-family="Times,serif" font-size="14.00">MPSoC-NoC</text>
<text text-anchor="middle" x="83" y="-24.8" font-family="Times,serif" font-size="14.00">Peripheral</text>
</g>
<!-- MPSoC-NoC&#45;&gt;MPSoC-OR1K -->
<g id="edge7" class="edge">
<title>MPSoC-NoC&#45;&gt;MPSoC-OR1K</title>
<path fill="none" stroke="black" d="M136.59,-51.47C144.17,-54.93 151.57,-59.07 158,-64 192.84,-90.68 220.65,-133.19 237.51,-163.37"/>
<polygon fill="black" stroke="black" points="234.52,-165.21 242.38,-172.31 240.67,-161.85 234.52,-165.21"/>
</g>
<!-- MPSoC-NoC&#45;&gt;SoC-OR1K -->
<g id="edge16" class="edge">
<title>MPSoC-NoC&#45;&gt;SoC-OR1K</title>
<path fill="none" stroke="black" d="M136.56,-47.57C144.8,-51.53 152.42,-56.85 158,-64 205.08,-124.32 133.16,-173 178,-235 182.42,-241.12 188.15,-246.22 194.49,-250.48"/>
<polygon fill="black" stroke="black" points="193.05,-253.7 203.44,-255.77 196.61,-247.67 193.05,-253.7"/>
</g>
<!-- MPSoC-SPRAM -->
<g id="node8" class="node">
<title>MPSoC-SPRAM</title>
<polygon fill="none" stroke="black" points="18,-245 18,-283 148,-283 148,-245 18,-245"/>
<text text-anchor="middle" x="83" y="-267.8" font-family="Times,serif" font-size="14.00">MPSoC-SPRAM</text>
<text text-anchor="middle" x="83" y="-252.8" font-family="Times,serif" font-size="14.00">Peripheral</text>
</g>
<!-- MPSoC-SPRAM&#45;&gt;MPSoC-OR1K -->
<g id="edge8" class="edge">
<title>MPSoC-SPRAM&#45;&gt;MPSoC-OR1K</title>
<path fill="none" stroke="black" d="M134.56,-244.88C142.41,-241.91 150.42,-238.87 158,-236 167.75,-232.31 178.05,-228.4 188.15,-224.57"/>
<polygon fill="black" stroke="black" points="189.65,-227.74 197.76,-220.92 187.17,-221.2 189.65,-227.74"/>
</g>
<!-- MPSoC-SPRAM&#45;&gt;SoC-OR1K -->
<g id="edge17" class="edge">
<title>MPSoC-SPRAM&#45;&gt;SoC-OR1K</title>
<path fill="none" stroke="black" d="M148.35,-266.63C162.96,-267.22 178.45,-267.86 192.98,-268.45"/>
<polygon fill="black" stroke="black" points="193.23,-271.96 203.36,-268.87 193.52,-264.97 193.23,-271.96"/>
</g>
<!-- MPSoC-SPRAM&#45;&gt;PU-OR1K -->
<g id="edge25" class="edge">
<title>MPSoC-SPRAM&#45;&gt;PU-OR1K</title>
<path fill="none" stroke="black" d="M137.24,-283.1C144.34,-286.15 151.43,-289.48 158,-293 167.56,-298.13 168.6,-301.58 178,-307 183.11,-309.94 188.49,-312.84 193.95,-315.63"/>
<polygon fill="black" stroke="black" points="192.65,-318.9 203.17,-320.22 195.78,-312.63 192.65,-318.9"/>
</g>
<!-- MPSoC-UART -->
<g id="node9" class="node">
<title>MPSoC-UART</title>
<polygon fill="none" stroke="black" points="25,-188 25,-226 141,-226 141,-188 25,-188"/>
<text text-anchor="middle" x="83" y="-210.8" font-family="Times,serif" font-size="14.00">MPSoC-UART</text>
<text text-anchor="middle" x="83" y="-195.8" font-family="Times,serif" font-size="14.00">Peripheral</text>
</g>
<!-- MPSoC-UART&#45;&gt;MPSoC-OR1K -->
<g id="edge9" class="edge">
<title>MPSoC-UART&#45;&gt;MPSoC-OR1K</title>
<path fill="none" stroke="black" d="M141.11,-204.34C156.05,-203.64 172.31,-202.88 187.76,-202.16"/>
<polygon fill="black" stroke="black" points="187.94,-205.66 197.76,-201.69 187.61,-198.66 187.94,-205.66"/>
</g>
<!-- MPSoC-UART&#45;&gt;SoC-OR1K -->
<g id="edge18" class="edge">
<title>MPSoC-UART&#45;&gt;SoC-OR1K</title>
<path fill="none" stroke="black" d="M134.99,-226.03C153.41,-232.9 174.39,-240.73 193.64,-247.91"/>
<polygon fill="black" stroke="black" points="192.63,-251.27 203.22,-251.49 195.07,-244.71 192.63,-251.27"/>
</g>
<!-- MPSoC-UART&#45;&gt;PU-OR1K -->
<g id="edge26" class="edge">
<title>MPSoC-UART&#45;&gt;PU-OR1K</title>
<path fill="none" stroke="black" d="M141.27,-222.97C147.5,-226.5 153.28,-230.78 158,-236 180.01,-260.3 156.75,-282.04 178,-307 182.69,-312.51 188.42,-317.23 194.6,-321.26"/>
<polygon fill="black" stroke="black" points="192.88,-324.31 203.27,-326.34 196.41,-318.27 192.88,-324.31"/>
</g>
<!-- MPSoC-DV -->
<g id="node13" class="node">
<title>MPSoC-DV</title>
<polygon fill="none" stroke="black" points="380,-172.5 380,-225.5 490,-225.5 490,-172.5 380,-172.5"/>
<text text-anchor="middle" x="435" y="-210.3" font-family="Times,serif" font-size="14.00">MPSoC-DV</text>
<text text-anchor="middle" x="435" y="-195.3" font-family="Times,serif" font-size="14.00">Environment</text>
<text text-anchor="middle" x="435" y="-180.3" font-family="Times,serif" font-size="14.00">or1k64&#45;pvt</text>
</g>
<!-- MPSoC-OR1K&#45;&gt;MPSoC-DV -->
<g id="edge29" class="edge">
<title>MPSoC-OR1K&#45;&gt;MPSoC-DV</title>
<path fill="none" stroke="black" d="M315.29,-199C332.69,-199 351.89,-199 369.68,-199"/>
<polygon fill="black" stroke="black" points="369.97,-202.5 379.97,-199 369.97,-195.5 369.97,-202.5"/>
</g>
<!-- SoC-DV -->
<g id="node14" class="node">
<title>SoC-DV</title>
<polygon fill="none" stroke="black" points="380,-244.5 380,-297.5 490,-297.5 490,-244.5 380,-244.5"/>
<text text-anchor="middle" x="435" y="-282.3" font-family="Times,serif" font-size="14.00">SoC-DV</text>
<text text-anchor="middle" x="435" y="-267.3" font-family="Times,serif" font-size="14.00">Environment</text>
<text text-anchor="middle" x="435" y="-252.3" font-family="Times,serif" font-size="14.00">or1k64&#45;pv</text>
</g>
<!-- SoC-OR1K&#45;&gt;SoC-DV -->
<g id="edge28" class="edge">
<title>SoC-OR1K&#45;&gt;SoC-DV</title>
<path fill="none" stroke="black" d="M309.5,-271C328.38,-271 349.93,-271 369.74,-271"/>
<polygon fill="black" stroke="black" points="369.92,-274.5 379.92,-271 369.92,-267.5 369.92,-274.5"/>
</g>
<!-- PU-DV -->
<g id="node15" class="node">
<title>PU-DV</title>
<polygon fill="none" stroke="black" points="380,-316.5 380,-369.5 490,-369.5 490,-316.5 380,-316.5"/>
<text text-anchor="middle" x="435" y="-354.3" font-family="Times,serif" font-size="14.00">PU-DV</text>
<text text-anchor="middle" x="435" y="-339.3" font-family="Times,serif" font-size="14.00">Environment</text>
<text text-anchor="middle" x="435" y="-324.3" font-family="Times,serif" font-size="14.00">or1k64&#45;p</text>
</g>
<!-- PU-OR1K&#45;&gt;PU-DV -->
<g id="edge27" class="edge">
<title>PU-OR1K&#45;&gt;PU-DV</title>
<path fill="none" stroke="black" d="M309.5,-343C328.38,-343 349.93,-343 369.74,-343"/>
<polygon fill="black" stroke="black" points="369.92,-346.5 379.92,-343 369.92,-339.5 369.92,-346.5"/>
</g>
</g>
</svg>
